<?xml version="1.0" encoding="UTF-8"?>
<!DOCTYPE svg PUBLIC "-//W3C//DTD SVG 1.1//EN" "http://www.w3.org/Graphics/SVG/1.1/DTD/svg11.dtd">
<svg xmlns="http://www.w3.org/2000/svg" version="1.1" width="512px" height="512px" style="shape-rendering:geometricPrecision; text-rendering:geometricPrecision; image-rendering:optimizeQuality; fill-rule:evenodd; clip-rule:evenodd" xmlns:xlink="http://www.w3.org/1999/xlink">
<g><path style="opacity:0.979" fill="#000000" d="M 171.5,92.5 C 181.711,92.3555 189.877,96.3555 196,104.5C 209.96,100.263 220.293,104.596 227,117.5C 229.286,124.25 228.786,130.75 225.5,137C 240.119,147.865 243.452,161.532 235.5,178C 246.752,189.239 249.585,202.405 244,217.5C 234.768,237.645 223.768,256.645 211,274.5C 212.983,302.236 204.15,325.736 184.5,345C 171.775,355.112 158.608,364.612 145,373.5C 141.808,385.982 139.475,398.649 138,411.5C 137.727,413.329 136.893,414.829 135.5,416C 130.037,415.971 124.703,414.971 119.5,413C 88.7238,403.796 58.0572,394.296 27.5,384.5C 26.0138,381.1 26.1805,377.767 28,374.5C 35.9927,358.85 43.1594,342.85 49.5,326.5C 46.0583,306.183 42.7249,285.85 39.5,265.5C 45.251,228.073 51.4177,190.739 58,153.5C 62.6001,143.194 70.6001,138.194 82,138.5C 93.2142,139.111 100.548,144.777 104,155.5C 118.674,134.155 136.174,115.322 156.5,99C 161.381,96.2176 166.381,94.051 171.5,92.5 Z M 189.5,110.5 C 193.976,110.822 195.476,113.156 194,117.5C 173.622,141.542 153.622,165.876 134,190.5C 130.125,195.75 126.959,195.583 124.5,190C 125.586,187.248 127.086,184.748 129,182.5C 149.754,158.92 169.92,134.92 189.5,110.5 Z M 214.5,136.5 C 218.976,136.822 220.476,139.156 219,143.5C 200.697,165.635 181.864,187.302 162.5,208.5C 158.851,207.461 157.684,205.128 159,201.5C 177.335,179.667 195.835,158 214.5,136.5 Z M 95.5,170.5 C 97.7224,170.178 99.5557,170.845 101,172.5C 101.197,192.02 101.697,211.52 102.5,231C 107.293,236.464 112.126,241.964 117,247.5C 123.792,256.402 127.126,266.402 127,277.5C 124.966,280.859 122.632,281.192 120,278.5C 118.532,270.095 115.865,262.095 112,254.5C 106.667,247.833 100.667,241.833 94,236.5C 93.3333,215.167 93.3333,193.833 94,172.5C 94.7172,171.956 95.2172,171.289 95.5,170.5 Z M 224.5,177.5 C 228.976,177.822 230.476,180.156 229,184.5C 214.451,202.967 199.451,220.967 184,238.5C 180.211,238.055 178.877,236.055 180,232.5C 194.362,213.77 209.196,195.436 224.5,177.5 Z"/></g>
<g><path style="opacity:0.98" fill="#000000" d="M 326.5,93.5 C 332.555,93.3379 338.555,93.8379 344.5,95C 350.628,97.5635 356.295,100.897 361.5,105C 377.821,120.647 392.655,137.48 406,155.5C 413.412,138.361 425.578,133.861 442.5,142C 448.222,146.617 452.056,152.45 454,159.5C 459.36,194.855 464.86,230.188 470.5,265.5C 467.491,285.888 464.158,306.221 460.5,326.5C 466.746,343.74 474.246,360.407 483,376.5C 483.847,379.588 483.347,382.421 481.5,385C 450.895,394.869 420.228,404.535 389.5,414C 385.295,415.741 380.962,416.408 376.5,416C 374.333,415.167 372.833,413.667 372,411.5C 370.216,398.798 368.216,386.131 366,373.5C 346.319,362.165 328.653,348.165 313,331.5C 302.576,314.314 298.41,295.814 300.5,276C 287.362,257.571 275.862,238.071 266,217.5C 260.336,202.381 263.169,189.214 274.5,178C 266.568,161.482 269.901,147.815 284.5,137C 278.429,122.371 282.429,111.371 296.5,104C 302.435,101.884 308.268,102.051 314,104.5C 317.124,99.5362 321.291,95.8696 326.5,93.5 Z M 317.5,110.5 C 320.689,111.514 323.522,113.18 326,115.5C 344.761,138.684 363.761,161.684 383,184.5C 387.047,189.869 385.88,193.035 379.5,194C 358.667,169.167 337.833,144.333 317,119.5C 315.029,116.384 315.195,113.384 317.5,110.5 Z M 292.5,136.5 C 295.689,137.514 298.522,139.18 301,141.5C 316.624,160.793 332.624,179.793 349,198.5C 352.904,202.988 352.237,206.321 347,208.5C 327.626,186.795 308.626,164.795 290,142.5C 289.972,140.213 290.805,138.213 292.5,136.5 Z M 410.5,170.5 C 412.722,170.178 414.556,170.845 416,172.5C 416.667,193.833 416.667,215.167 416,236.5C 401.585,245.989 393.252,259.323 391,276.5C 388.541,281.645 385.707,281.811 382.5,277C 383.22,266.173 386.72,256.34 393,247.5C 398.367,242.468 403.367,237.135 408,231.5C 408.333,211.833 408.667,192.167 409,172.5C 409.717,171.956 410.217,171.289 410.5,170.5 Z M 282.5,177.5 C 284.84,178.086 287.007,179.086 289,180.5C 302.976,198.644 317.143,216.644 331.5,234.5C 330.125,237.729 327.792,238.896 324.5,238C 308.78,219.882 293.78,201.215 279.5,182C 280.386,180.385 281.386,178.885 282.5,177.5 Z"/></g>
</svg>
