<?xml version="1.0" encoding="UTF-8"?>
<!DOCTYPE svg PUBLIC "-//W3C//DTD SVG 1.1//EN" "http://www.w3.org/Graphics/SVG/1.1/DTD/svg11.dtd">
<svg xmlns="http://www.w3.org/2000/svg" version="1.1" width="512px" height="512px" style="shape-rendering:geometricPrecision; text-rendering:geometricPrecision; image-rendering:optimizeQuality; fill-rule:evenodd; clip-rule:evenodd" xmlns:xlink="http://www.w3.org/1999/xlink">
<g><path style="opacity:0.942" fill="#000000" d="M -0.5,383.5 C -0.5,380.833 -0.5,378.167 -0.5,375.5C 6.88554,359.718 14.0522,343.718 21,327.5C 18.9933,308.787 16.3267,290.12 13,271.5C 12.3333,267.5 12.3333,263.5 13,259.5C 18.7602,224.178 24.4268,188.845 30,153.5C 39.1686,127.658 57.3353,117.491 84.5,123C 87.5,124.5 90.5,126 93.5,127.5C 104.259,115.238 115.592,103.405 127.5,92C 138.001,82.8334 150.167,77.3334 164,75.5C 173.868,75.8995 182.701,79.0662 190.5,85C 220.583,86.2428 235.25,101.743 234.5,131.5C 245.667,143.836 249,158.003 244.5,174C 254.751,190.306 256.251,207.473 249,225.5C 240.183,244.479 229.85,262.479 218,279.5C 218.592,309.409 208.426,334.909 187.5,356C 175.562,365.939 163.062,375.106 150,383.5C 147.814,394.801 145.814,406.134 144,417.5C 139.256,429.461 130.423,434.628 117.5,433C 80.6142,422.205 43.9475,410.705 7.5,398.5C 3.48184,394.126 0.815175,389.126 -0.5,383.5 Z M 162.5,93.5 C 172.315,93.6572 180.148,97.6572 186,105.5C 204.116,100.641 214.616,107.474 217.5,126C 217.218,130.015 216.218,133.848 214.5,137.5C 229.108,147.995 232.442,161.329 224.5,177.5C 233.709,186.629 237.209,197.629 235,210.5C 226.17,233.167 214.504,254.167 200,273.5C 202.418,301.93 193.251,325.764 172.5,345C 160.283,355.026 147.45,364.192 134,372.5C 130.913,385.356 128.579,398.356 127,411.5C 126.204,413.967 124.537,415.3 122,415.5C 87.3378,405.834 53.0045,395.168 19,383.5C 17.6986,381.635 17.3653,379.635 18,377.5C 26.4677,361.067 33.9677,344.234 40.5,327C 37.5912,308.456 34.4245,289.956 31,271.5C 30.3333,267.833 30.3333,264.167 31,260.5C 36.7991,226.906 42.1324,193.24 47,159.5C 51.796,143.178 62.6293,136.678 79.5,140C 86.9094,143.739 91.7427,149.572 94,157.5C 110.084,134.082 129.584,113.915 152.5,97C 155.85,95.5137 159.184,94.347 162.5,93.5 Z"/></g>
<g><path style="opacity:0.945" fill="#000000" d="M 333.5,76.5 C 347.499,75.1369 360.499,77.9702 372.5,85C 375.833,87.3333 379.167,89.6667 382.5,92C 394.408,103.405 405.741,115.238 416.5,127.5C 441.168,115.196 461.001,120.529 476,143.5C 478.23,147.962 479.897,152.628 481,157.5C 486.338,193.36 491.838,229.193 497.5,265C 494.829,283.191 491.996,301.357 489,319.5C 488.333,322.167 488.333,324.833 489,327.5C 494.56,341.506 500.893,355.173 508,368.5C 512.401,380.063 510.234,390.229 501.5,399C 465.756,411.137 429.756,422.47 393.5,433C 381.064,434.365 371.897,429.532 366,418.5C 364.278,406.775 362.278,395.108 360,383.5C 340.27,371.778 322.937,357.112 308,339.5C 297.358,320.934 292.025,300.934 292,279.5C 280.15,262.479 269.817,244.479 261,225.5C 253.701,207.456 255.201,190.289 265.5,174C 261.017,158.413 264.184,144.58 275,132.5C 274.795,103.366 289.295,87.533 318.5,85C 323.27,81.619 328.27,78.7857 333.5,76.5 Z M 337.5,94.5 C 348.759,93.114 358.759,95.9473 367.5,103C 385.813,119.475 402.146,137.641 416.5,157.5C 423.846,138.813 436.179,134.313 453.5,144C 459.77,149.372 463.27,156.205 464,164.5C 468.887,198.376 474.054,232.21 479.5,266C 476.437,286.213 473.103,306.379 469.5,326.5C 475.93,343.951 483.43,360.951 492,377.5C 492.687,379.92 492.187,382.087 490.5,384C 458.895,394.202 427.228,404.202 395.5,414C 392.232,415.213 388.899,415.546 385.5,415C 384.299,414.097 383.465,412.931 383,411.5C 381.216,398.798 379.216,386.131 377,373.5C 365.396,366.282 354.229,358.449 343.5,350C 336,343.833 329.167,337 323,329.5C 313.318,312.102 308.984,293.435 310,273.5C 297.007,256.135 286.007,237.469 277,217.5C 271.188,202.363 274.021,189.03 285.5,177.5C 277.575,161.287 280.908,147.954 295.5,137.5C 289.489,121.357 294.489,110.19 310.5,104C 315.327,103.116 319.994,103.616 324.5,105.5C 327.997,100.656 332.33,96.9893 337.5,94.5 Z"/></g>
<g><path style="opacity:0.875" fill="#000000" d="M 178.5,109.5 C 185.03,109.243 187.197,112.243 185,118.5C 164.289,142.875 143.956,167.542 124,192.5C 118.995,196.888 115.495,195.888 113.5,189.5C 113.719,188.062 114.219,186.729 115,185.5C 136.378,160.294 157.545,134.96 178.5,109.5 Z"/></g>
<g><path style="opacity:0.901" fill="#000000" d="M 327.5,109.5 C 331.544,110.944 335.044,113.278 338,116.5C 356.761,139.684 375.761,162.684 395,185.5C 397.335,189.155 396.835,192.321 393.5,195C 391.182,195.342 389.015,194.842 387,193.5C 366.711,168.209 346.044,143.209 325,118.5C 323.93,114.858 324.764,111.858 327.5,109.5 Z"/></g>
<g><path style="opacity:0.881" fill="#000000" d="M 203.5,135.5 C 210.03,135.243 212.197,138.243 210,144.5C 192.708,165.461 175.041,186.128 157,206.5C 149.959,210.482 146.959,208.482 148,200.5C 166.335,178.667 184.835,157 203.5,135.5 Z"/></g>
<g><path style="opacity:0.899" fill="#000000" d="M 301.5,135.5 C 305.982,136.663 309.816,138.996 313,142.5C 328.624,161.793 344.624,180.793 361,199.5C 364.593,207.159 362.426,209.826 354.5,207.5C 335.256,185.761 316.589,163.595 298.5,141C 299.124,138.915 300.124,137.082 301.5,135.5 Z"/></g>
<g><path style="opacity:0.891" fill="#000000" d="M 84.5,169.5 C 87.6516,168.959 90.1516,169.959 92,172.5C 92.3333,192.167 92.6667,211.833 93,231.5C 101.896,238.72 108.896,247.387 114,257.5C 116.359,263.102 117.859,268.935 118.5,275C 117.698,281.343 114.698,282.843 109.5,279.5C 107.903,271.542 105.403,263.875 102,256.5C 95.6308,249.468 89.2975,242.468 83,235.5C 82.3333,215.167 82.3333,194.833 83,174.5C 83.3519,172.753 83.8519,171.086 84.5,169.5 Z"/></g>
<g><path style="opacity:0.885" fill="#000000" d="M 419.5,169.5 C 422.652,168.959 425.152,169.959 427,172.5C 427.667,193.833 427.667,215.167 427,236.5C 412.163,247.024 403.496,261.358 401,279.5C 398.413,282.034 395.747,282.034 393,279.5C 391.677,266.789 395.011,255.455 403,245.5C 407.667,240.833 412.333,236.167 417,231.5C 417.333,212.833 417.667,194.167 418,175.5C 418.315,173.414 418.815,171.414 419.5,169.5 Z"/></g>
<g><path style="opacity:0.876" fill="#000000" d="M 213.5,176.5 C 219.356,176.854 221.523,179.854 220,185.5C 205.304,203.853 190.304,221.853 175,239.5C 168.418,238.834 166.751,235.501 170,229.5C 184.508,211.803 199.008,194.136 213.5,176.5 Z"/></g>
<g><path style="opacity:0.897" fill="#000000" d="M 291.5,176.5 C 295.281,176.974 298.448,178.641 301,181.5C 313.521,197.867 326.521,213.867 340,229.5C 344.095,234.715 342.929,238.049 336.5,239.5C 335.062,239.281 333.729,238.781 332.5,238C 316.988,219.8 302.321,200.967 288.5,181.5C 289.26,179.64 290.26,177.973 291.5,176.5 Z"/></g>
</svg>
